<svg width="131" height="26" viewBox="0 0 131 26" fill="none" xmlns="http://www.w3.org/2000/svg">
<path d="M13.375 6.6C13.375 7.61667 13.1417 8.55 12.675 9.4C12.2083 10.2333 11.4917 10.9083 10.525 11.425C9.55835 11.9417 8.35835 12.2 6.92501 12.2H4.27501V18.5H1.22748e-05V0.949999H6.92501C8.32501 0.949999 9.50835 1.19167 10.475 1.675C11.4417 2.15833 12.1667 2.825 12.65 3.675C13.1333 4.525 13.375 5.5 13.375 6.6ZM6.60001 8.8C7.41668 8.8 8.02501 8.60833 8.42501 8.225C8.82501 7.84167 9.02501 7.3 9.02501 6.6C9.02501 5.9 8.82501 5.35833 8.42501 4.975C8.02501 4.59167 7.41668 4.4 6.60001 4.4H4.27501V8.8H6.60001ZM21.2756 18.7C20.0589 18.7 18.9756 18.4917 18.0256 18.075C17.0756 17.6583 16.3256 17.0917 15.7756 16.375C15.2256 15.6417 14.9173 14.825 14.8506 13.925H19.0756C19.1256 14.4083 19.3506 14.8 19.7506 15.1C20.1506 15.4 20.6423 15.55 21.2256 15.55C21.7589 15.55 22.1673 15.45 22.4506 15.25C22.7506 15.0333 22.9006 14.7583 22.9006 14.425C22.9006 14.025 22.6923 13.7333 22.2756 13.55C21.8589 13.35 21.1839 13.1333 20.2506 12.9C19.2506 12.6667 18.4173 12.425 17.7506 12.175C17.0839 11.9083 16.5089 11.5 16.0256 10.95C15.5423 10.3833 15.3006 9.625 15.3006 8.675C15.3006 7.875 15.5173 7.15 15.9506 6.5C16.4006 5.83333 17.0506 5.30833 17.9006 4.925C18.7673 4.54167 19.7923 4.35 20.9756 4.35C22.7256 4.35 24.1006 4.78333 25.1006 5.65C26.1173 6.51667 26.7006 7.66667 26.8506 9.1H22.9006C22.8339 8.61667 22.6173 8.23333 22.2506 7.95C21.9006 7.66667 21.4339 7.525 20.8506 7.525C20.3506 7.525 19.9673 7.625 19.7006 7.825C19.4339 8.00833 19.3006 8.26667 19.3006 8.6C19.3006 9 19.5089 9.3 19.9256 9.5C20.3589 9.7 21.0256 9.9 21.9256 10.1C22.9589 10.3667 23.8006 10.6333 24.4506 10.9C25.1006 11.15 25.6673 11.5667 26.1506 12.15C26.6506 12.7167 26.9089 13.4833 26.9256 14.45C26.9256 15.2667 26.6923 16 26.2256 16.65C25.7756 17.2833 25.1173 17.7833 24.2506 18.15C23.4006 18.5167 22.4089 18.7 21.2756 18.7ZM43.791 4.55L35.041 25.125H30.441L33.641 18.025L27.966 4.55H32.741L35.966 13.275L39.166 4.55H43.791ZM44.4869 11.525C44.4869 10.075 44.7786 8.80833 45.3619 7.725C45.9619 6.64167 46.7869 5.80833 47.8369 5.225C48.9036 4.64167 50.1203 4.35 51.4869 4.35C53.2369 4.35 54.6953 4.80833 55.8619 5.725C57.0453 6.64167 57.8203 7.93333 58.1869 9.6H53.6369C53.2536 8.53333 52.5119 8 51.4119 8C50.6286 8 50.0036 8.30833 49.5369 8.925C49.0703 9.525 48.8369 10.3917 48.8369 11.525C48.8369 12.6583 49.0703 13.5333 49.5369 14.15C50.0036 14.75 50.6286 15.05 51.4119 15.05C52.5119 15.05 53.2536 14.5167 53.6369 13.45H58.1869C57.8203 15.0833 57.0453 16.3667 55.8619 17.3C54.6786 18.2333 53.2203 18.7 51.4869 18.7C50.1203 18.7 48.9036 18.4083 47.8369 17.825C46.7869 17.2417 45.9619 16.4083 45.3619 15.325C44.7786 14.2417 44.4869 12.975 44.4869 11.525ZM69.0486 4.4C70.6486 4.4 71.932 4.93333 72.8986 6C73.8653 7.05 74.3486 8.5 74.3486 10.35V18.5H70.0986V10.925C70.0986 9.99167 69.857 9.26667 69.3736 8.75C68.8903 8.23333 68.2403 7.975 67.4236 7.975C66.607 7.975 65.957 8.23333 65.4736 8.75C64.9903 9.26667 64.7486 9.99167 64.7486 10.925V18.5H60.4736V-2.38419e-07H64.7486V6.425C65.182 5.80833 65.7736 5.31667 66.5236 4.95C67.2736 4.58333 68.1153 4.4 69.0486 4.4ZM83.6693 18.7C82.3027 18.7 81.0693 18.4083 79.9693 17.825C78.886 17.2417 78.0277 16.4083 77.3943 15.325C76.7777 14.2417 76.4693 12.975 76.4693 11.525C76.4693 10.0917 76.786 8.83333 77.4193 7.75C78.0527 6.65 78.9193 5.80833 80.0193 5.225C81.1193 4.64167 82.3527 4.35 83.7193 4.35C85.086 4.35 86.3193 4.64167 87.4193 5.225C88.5193 5.80833 89.386 6.65 90.0193 7.75C90.6527 8.83333 90.9693 10.0917 90.9693 11.525C90.9693 12.9583 90.6443 14.225 89.9943 15.325C89.361 16.4083 88.486 17.2417 87.3693 17.825C86.2693 18.4083 85.036 18.7 83.6693 18.7ZM83.6693 15C84.486 15 85.1777 14.7 85.7443 14.1C86.3277 13.5 86.6193 12.6417 86.6193 11.525C86.6193 10.4083 86.336 9.55 85.7693 8.95C85.2193 8.35 84.536 8.05 83.7193 8.05C82.886 8.05 82.1943 8.35 81.6443 8.95C81.0943 9.53333 80.8193 10.3917 80.8193 11.525C80.8193 12.6417 81.086 13.5 81.6193 14.1C82.1693 14.7 82.8527 15 83.6693 15Z" fill="white"/>
<path d="M104.162 15.4H97.6123L96.5623 18.5H92.0873L98.4373 0.949999H103.387L109.737 18.5H105.212L104.162 15.4ZM103.062 12.1L100.887 5.675L98.7373 12.1H103.062ZM115.945 6.875C116.445 6.10833 117.07 5.50833 117.82 5.075C118.57 4.625 119.403 4.4 120.32 4.4V8.925H119.145C118.078 8.925 117.278 9.15833 116.745 9.625C116.212 10.075 115.945 10.875 115.945 12.025V18.5H111.67V4.55H115.945V6.875ZM130.138 14.875V18.5H127.963C126.413 18.5 125.205 18.125 124.338 17.375C123.472 16.6083 123.038 15.3667 123.038 13.65V8.1H121.338V4.55H123.038V1.15H127.313V4.55H130.113V8.1H127.313V13.7C127.313 14.1167 127.413 14.4167 127.613 14.6C127.813 14.7833 128.147 14.875 128.613 14.875H130.138Z" fill="url(#paint0_linear_1_103)"/>
<defs>
<linearGradient id="paint0_linear_1_103" x1="111.5" y1="-9.5" x2="101.215" y2="43.8302" gradientUnits="userSpaceOnUse">
<stop stop-color="#B75CFF"/>
<stop offset="1" stop-color="#671AE4"/>
</linearGradient>
</defs>
</svg>
